<?xml version="1.0" standalone="no"?>
<!DOCTYPE svg PUBLIC "-//W3C//DTD SVG 20010904//EN"
 "http://www.w3.org/TR/2001/REC-SVG-20010904/DTD/svg10.dtd">
<svg version="1.0" xmlns="http://www.w3.org/2000/svg"
 width="700.000000pt" height="700.000000pt" viewBox="0 0 700.000000 700.000000"
 preserveAspectRatio="xMidYMid meet">
<metadata>
Created by potrace 1.11, written by Peter Selinger 2001-2013
</metadata>
<g transform="translate(0.000000,700.000000) scale(0.100000,-0.100000)"
fill="#000000" stroke="none">
<path d="M3278 6995 c-1 -1 -41 -5 -88 -9 -87 -7 -105 -9 -225 -27 -116 -18
-123 -19 -192 -35 -184 -42 -248 -59 -369 -99 -459 -153 -870 -390 -1229 -709
-358 -318 -681 -756 -860 -1166 -25 -58 -50 -114 -55 -125 -45 -93 -150 -427
-176 -560 -2 -11 -10 -54 -19 -95 -29 -147 -36 -200 -52 -370 -15 -164 -8
-592 12 -711 2 -13 6 -46 9 -74 9 -78 23 -156 51 -285 31 -142 110 -393 174
-554 65 -161 209 -437 300 -576 84 -127 253 -349 326 -426 243 -261 429 -421
682 -590 77 -52 145 -94 149 -94 4 0 15 -6 23 -14 29 -25 304 -161 431 -213
269 -110 577 -194 835 -228 22 -2 56 -7 75 -10 186 -26 698 -27 838 0 16 3
104 15 147 20 324 41 869 235 1167 415 37 22 70 40 73 40 3 0 11 5 18 10 7 6
62 43 122 83 253 168 492 376 678 592 33 39 63 72 67 75 17 13 181 236 245
335 219 336 406 779 481 1140 16 79 54 301 59 350 4 33 9 71 11 85 9 47 11
525 3 605 -15 165 -21 220 -24 225 -2 3 -6 30 -10 60 -9 73 -68 337 -95 422
-11 37 -21 70 -21 73 0 11 -74 208 -116 310 -210 503 -561 973 -995 1335 -225
187 -582 407 -818 505 -36 14 -80 33 -98 41 -110 50 -419 145 -587 179 -44 9
-89 19 -100 21 -11 2 -38 6 -60 9 -22 3 -51 7 -65 10 -13 2 -52 7 -86 11 -33
3 -74 8 -90 10 -32 5 -540 14 -546 9z m607 -1379 c17 -3 48 -8 70 -10 526 -63
903 -298 1095 -683 38 -78 86 -216 95 -276 2 -18 7 -48 10 -67 15 -96 20 -319
10 -420 -12 -120 -42 -240 -85 -344 -32 -76 -123 -229 -170 -284 -188 -222
-426 -369 -736 -457 -96 -27 -103 -29 -199 -46 -33 -5 -71 -12 -85 -15 -14 -2
-52 -7 -85 -10 -33 -3 -76 -7 -95 -9 -42 -5 -417 -5 -480 -1 -25 2 -73 6 -106
10 l-62 7 0 -665 c0 -561 3 -666 14 -666 8 0 16 -1 19 -1 2 -1 51 -10 107 -21
57 -10 108 -20 113 -22 6 -1 30 -8 55 -15 99 -27 246 -75 258 -84 8 -6 12 -38
12 -93 l0 -84 -825 0 -825 0 0 88 c0 87 1 89 28 101 41 20 152 61 176 66 11 2
68 15 126 29 58 13 116 26 130 28 14 1 27 6 30 10 4 5 5 3487 1 3561 -1 9 -9
17 -18 17 -34 0 -238 57 -338 95 -55 20 -108 39 -117 42 -15 5 -18 18 -18 94
0 86 1 89 23 89 118 -2 881 10 912 14 50 6 148 14 290 22 61 3 112 8 114 10 5
5 523 -4 556 -10z"/>
<path d="M3230 5308 c-47 -4 -103 -10 -125 -15 l-40 -9 -1 -977 c-1 -537 1
-977 5 -978 3 0 15 -2 26 -4 98 -19 467 -28 560 -14 33 5 71 11 85 13 54 8
165 37 199 52 94 40 122 55 175 89 210 134 364 391 402 670 18 135 8 375 -21
500 -82 357 -341 585 -748 659 -112 20 -360 27 -517 14z"/>
</g>
</svg>
