<svg xmlns="http://www.w3.org/2000/svg" width="36" height="37" viewBox="0 0 36 37">
  <path fill="#FFF" d="M16.4769583,0.990389226 C25.0300283,0.990389226 31.9635238,7.92408612 31.9635238,16.4769547 C31.9635238,20.3934636 30.5096495,23.9704509 28.1121437,26.6976154 L36.1976214,34.7832824 C36.5881457,35.1738067 36.5881457,35.8069717 36.1976214,36.197496 C35.8371375,36.55798 35.2699064,36.5857095 34.8776152,36.2806846 L34.7834079,36.197496 L26.6977002,28.1120715 C23.9705544,30.5096036 20.3935595,31.9635202 16.4769583,31.9635202 C7.92429358,31.9635202 0.990392827,25.0296195 0.990392827,16.4769547 C0.990392827,7.92428998 7.92429358,0.990389226 16.4769583,0.990389226 Z M16.4769583,2.99038923 C9.02886308,2.99038923 2.99039283,9.02885948 2.99039283,16.4769547 C2.99039283,23.92505 9.02886308,29.9635202 16.4769583,29.9635202 C23.9254458,29.9635202 29.9635238,23.9252668 29.9635238,16.4769547 C29.9635238,9.02864261 23.9254458,2.99038923 16.4769583,2.99038923 Z" transform="translate(-.5)"/>
</svg>
