<svg xmlns="http://www.w3.org/2000/svg" width="36" height="36" viewBox="0 0 36 36">
  <path fill="#FFF" d="M34.3785127,25.4145167 C34.9307975,25.4145167 35.3785127,25.8622319 35.3785127,26.4145167 C35.3785127,26.9273525 34.9924725,27.3500239 34.4951338,27.407789 L34.3785127,27.4145167 L9.19823119,27.4145167 C8.64594644,27.4145167 8.19823119,26.9668014 8.19823119,26.4145167 C8.19823119,25.9016809 8.58427138,25.4790095 9.08161007,25.4212444 L9.19823119,25.4145167 L34.3785127,25.4145167 Z M3.92793971,25.4145167 C4.48022446,25.4145167 4.92793971,25.8622319 4.92793971,26.4145167 C4.92793971,26.9273525 4.54189952,27.3500239 4.04456084,27.407789 L3.92793971,27.4145167 L1,27.4145167 C0.44771525,27.4145167 -9.11271059e-13,26.9668014 -9.11271059e-13,26.4145167 C-9.11271059e-13,25.9016809 0.38604019,25.4790095 0.883378875,25.4212444 L1,25.4145167 L3.92793971,25.4145167 Z M34.3785127,12.8536553 C34.9307975,12.8536553 35.3785127,13.3013706 35.3785127,13.8536553 C35.3785127,14.3664912 34.9924725,14.7891625 34.4951338,14.8469276 L34.3785127,14.8536553 L9.19823119,14.8536553 C8.64594644,14.8536553 8.19823119,14.4059401 8.19823119,13.8536553 C8.19823119,13.3408195 8.58427138,12.9181482 9.08161007,12.8603831 L9.19823119,12.8536553 L34.3785127,12.8536553 Z M3.92793971,12.8536553 C4.48022446,12.8536553 4.92793971,13.3013706 4.92793971,13.8536553 C4.92793971,14.3664912 4.54189952,14.7891625 4.04456084,14.8469276 L3.92793971,14.8536553 L1,14.8536553 C0.44771525,14.8536553 -9.11271059e-13,14.4059401 -9.11271059e-13,13.8536553 C-9.11271059e-13,13.3408195 0.38604019,12.9181482 0.883378875,12.8603831 L1,12.8536553 L3.92793971,12.8536553 Z M34.3785127,0.292793971 C34.9307975,0.292793971 35.3785127,0.740509221 35.3785127,1.29279397 C35.3785127,1.80562981 34.9924725,2.22830113 34.4951338,2.28606624 L34.3785127,2.29279397 L9.19823119,2.29279397 C8.64594644,2.29279397 8.19823119,1.84507872 8.19823119,1.29279397 C8.19823119,0.779958132 8.58427138,0.35728681 9.08161007,0.299521702 L9.19823119,0.292793971 L34.3785127,0.292793971 Z M3.92793971,0.292793971 C4.48022446,0.292793971 4.92793971,0.740509221 4.92793971,1.29279397 C4.92793971,1.80562981 4.54189952,2.22830113 4.04456084,2.28606624 L3.92793971,2.29279397 L1,2.29279397 C0.44771525,2.29279397 -9.11271059e-13,1.84507872 -9.11271059e-13,1.29279397 C-9.11271059e-13,0.779958132 0.38604019,0.35728681 0.883378875,0.299521702 L1,0.292793971 L3.92793971,0.292793971 Z" transform="translate(0 2.5)"/>
</svg>
