<svg xmlns="http://www.w3.org/2000/svg" width="36" height="36" viewBox="0 0 36 36">
  <path fill="#FFF" d="M21.9852129,-0.00109297508 L22.0107578,-0.000209927578 C22.0333062,0.000849075582 22.0557395,0.00268186211 22.0780231,0.00526712335 C22.0904989,0.00662365477 22.1038732,0.00843727964 22.1172528,0.0105354317 C22.1391405,0.0140655778 22.1601319,0.0180758283 22.180937,0.0227452016 C22.1931939,0.0254378373 22.2058992,0.0285553166 22.2185935,0.0319392334 C22.2446481,0.0388996052 22.2699623,0.0467251233 22.2948997,0.0555206108 C22.3341256,0.0694490014 22.3734474,0.0861130869 22.4123668,0.105572809 L22.3197419,0.0646505575 C22.3424024,0.0733174204 22.3647286,0.0827918732 22.3866754,0.0930458965 L22.4123668,0.105572809 L32.8949434,5.34686111 C33.2337274,5.51625313 33.4477298,5.86251624 33.4477298,6.2412883 L33.4477298,6.2412883 L33.4477298,34.8301336 C33.4477298,35.5735156 32.6654173,36.0570113 32.0005162,35.7245608 L32.0005162,35.7245608 L21.965,30.7067098 L11.9297902,35.7245608 C11.9261587,35.7263766 11.9225236,35.728168 11.9188852,35.7299352 C11.8926058,35.7428422 11.8654607,35.7546388 11.8378173,35.7652334 C11.8267108,35.7694146 11.8153777,35.7735413 11.8040273,35.7774477 C11.7834521,35.7845448 11.763036,35.790821 11.7424101,35.796445 C11.7280032,35.8004208 11.7129587,35.8041699 11.6979071,35.8075504 C11.6778564,35.8119684 11.6581972,35.8157441 11.6383999,35.8189257 C11.6206264,35.8218696 11.602571,35.8242596 11.5845408,35.8261408 C11.5708102,35.8275067 11.557171,35.8286481 11.5434863,35.829505 C11.5231467,35.8308128 11.5028194,35.8314323 11.4825653,35.8314237 C11.4623338,35.8314323 11.4420065,35.8308128 11.4216304,35.8295501 C11.4082707,35.8286662 11.3949181,35.8275547 11.3816163,35.826175 C11.3625832,35.824279 11.3435238,35.8217464 11.3244559,35.8186348 C11.305862,35.8155133 11.287771,35.8120331 11.2698175,35.8080623 C11.252528,35.804298 11.2348084,35.7998636 11.2171136,35.7949087 C11.1996519,35.7900153 11.1826676,35.7847798 11.1658485,35.7791048 C11.1222003,35.7642921 11.0785342,35.7461464 11.035363,35.7245608 L11.1250245,35.7643443 C11.098179,35.75398 11.0718067,35.7424812 11.045983,35.7298944 L11.035363,35.7245608 L0.552786404,30.4832725 C0.214002376,30.3138805 -2.12629914e-12,29.9676173 -2.12629914e-12,29.5888453 L-2.12629914e-12,29.5888453 L-2.12629914e-12,1 C-2.12629914e-12,0.256617979 0.782312503,-0.226877737 1.4472136,0.105572809 L1.4472136,0.105572809 L11.482,5.12270979 L21.5179396,0.105572809 C21.5291644,0.0999604363 21.5404226,0.0945806051 21.5517099,0.0894306401 C21.5688651,0.0814582641 21.5872792,0.0736749195 21.6059224,0.0664391279 C21.6173516,0.0620958868 21.6280256,0.0581584452 21.6387155,0.0544168406 C21.6621214,0.0461770446 21.686558,0.0386602604 21.7112909,0.0320802514 C21.7240175,0.0286592088 21.7363323,0.0256295126 21.748652,0.0228468377 C21.7708013,0.0179112958 21.7934582,0.0136175329 21.8162945,0.0101140839 C21.8279066,0.00825119194 21.8395404,0.00668067418 21.8511654,0.00532242446 C21.8744247,0.00267487649 21.8977316,0.000777441871 21.9211618,-0.000284361741 C21.9359364,-0.000977836481 21.9506652,-0.00129913116 21.9653554,-0.00129002303 L21.9852129,-0.00109297508 L21.9852129,-0.00109297508 Z M1.999,2.617 L1.999,28.97 L10.482,33.212 L10.482,6.859 L1.999,2.617 Z M22.965,2.618 L22.965,28.971 L31.447,33.212 L31.447,6.859 L22.965,2.618 Z M20.965,2.617 L12.482,6.85770979 L12.482,33.2107098 L20.965,28.97 L20.965,2.617 Z" transform="translate(1)"/>
</svg>
